<svg width="165" height="151" viewBox="0 0 165 151" fill="none" xmlns="http://www.w3.org/2000/svg">
<path d="M29.4155 63.4082C29.4155 60.7139 29.9302 58.186 30.9595 55.8247C31.9888 53.4634 33.3813 51.4048 35.1372 49.6489C36.9233 47.8628 38.9971 46.4551 41.3584 45.4258C43.7197 44.3965 46.2476 43.8818 48.9419 43.8818H78.8218V56.9146H48.9419C48.0337 56.9146 47.186 57.0811 46.3989 57.4141C45.6118 57.7471 44.9155 58.2163 44.3101 58.8218C43.7349 59.397 43.2808 60.0781 42.9478 60.8652C42.6147 61.6523 42.4482 62.5 42.4482 63.4082C42.4482 64.3164 42.6147 65.1792 42.9478 65.9966C43.2808 66.7837 43.7349 67.48 44.3101 68.0854C44.9155 68.6606 45.6118 69.1147 46.3989 69.4478C47.186 69.7808 48.0337 69.9473 48.9419 69.9473H61.9746C64.6689 69.9473 67.1968 70.4619 69.5581 71.4912C71.9497 72.4902 74.0234 73.8828 75.7793 75.6689C77.5654 77.4248 78.958 79.4985 79.957 81.8901C80.9863 84.2515 81.501 86.7793 81.501 89.4736C81.501 92.168 80.9863 94.6958 79.957 97.0571C78.958 99.4185 77.5654 101.492 75.7793 103.278C74.0234 105.034 71.9497 106.427 69.5581 107.456C67.1968 108.485 64.6689 109 61.9746 109H33.0483V95.9673H61.9746C62.8828 95.9673 63.7305 95.8008 64.5176 95.4678C65.3047 95.1348 65.9858 94.6807 66.561 94.1055C67.1665 93.5 67.6357 92.8037 67.9688 92.0166C68.3018 91.2295 68.4683 90.3818 68.4683 89.4736C68.4683 88.5654 68.3018 87.7178 67.9688 86.9307C67.6357 86.1436 67.1665 85.4624 66.561 84.8872C65.9858 84.2817 65.3047 83.8125 64.5176 83.4795C63.7305 83.1465 62.8828 82.98 61.9746 82.98H48.9419C46.2476 82.98 43.7197 82.4653 41.3584 81.436C38.9971 80.4067 36.9233 79.0142 35.1372 77.2583C33.3813 75.4722 31.9888 73.3984 30.9595 71.0371C29.9302 68.6455 29.4155 66.1025 29.4155 63.4082ZM134.722 109H90.0835V43.8818H134.722V56.9146H103.116V69.9473H124.504V82.98H103.116V95.9673H134.722V109Z" fill="#41FF00"/>
<path d="M82.5 5C125.736 5 160 36.9283 160 75.3877C160 113.847 125.736 145.775 82.5 145.775C39.2641 145.775 5 113.847 5 75.3877C5.00014 36.9283 39.2642 5 82.5 5Z" stroke="#41FF00" stroke-width="10"/>
</svg>
